<mxfile modified="2019-11-17T11:25:51.671Z" host="www.draw.io" agent="Mozilla/5.0 (Windows NT 10.0; Win64; x64) AppleWebKit/537.36 (KHTML, like Gecko) Chrome/78.0.3904.97 Safari/537.36" etag="ZXWp_OCGzPLEXkWUg9Bb" version="12.2.6" type="github" pages="1">
  <diagram id="ZjFbMUzR2h4XMt5LGLqK" name="Page-1">
    <mxGraphModel dx="1024" dy="534" grid="1" gridSize="10" guides="1" tooltips="1" connect="1" arrows="1" fold="1" page="1" pageScale="1" pageWidth="827" pageHeight="1169" math="0" shadow="0">
      <root>
        <mxCell id="MGRXwD8dUgbWrKYlEfeG-0"/>
        <mxCell id="MGRXwD8dUgbWrKYlEfeG-1" parent="MGRXwD8dUgbWrKYlEfeG-0"/>
        <mxCell id="dIiYX6rC-DH4-wpnL1Wr-46" value="User" style="strokeWidth=2;whiteSpace=wrap;html=1;align=center;fontSize=14;" parent="MGRXwD8dUgbWrKYlEfeG-1" vertex="1">
          <mxGeometry x="200.5" y="155" width="100" height="70" as="geometry"/>
        </mxCell>
        <mxCell id="dIiYX6rC-DH4-wpnL1Wr-47" value="Admin" style="strokeWidth=2;whiteSpace=wrap;html=1;align=center;fontSize=14;" parent="MGRXwD8dUgbWrKYlEfeG-1" vertex="1">
          <mxGeometry x="413" y="490" width="100" height="70" as="geometry"/>
        </mxCell>
        <mxCell id="dIiYX6rC-DH4-wpnL1Wr-48" value="Candidate" style="strokeWidth=2;whiteSpace=wrap;html=1;align=center;fontSize=14;" parent="MGRXwD8dUgbWrKYlEfeG-1" vertex="1">
          <mxGeometry x="620.5" y="150" width="100" height="80" as="geometry"/>
        </mxCell>
        <mxCell id="dIiYX6rC-DH4-wpnL1Wr-49" value="name" style="ellipse;whiteSpace=wrap;html=1;" parent="MGRXwD8dUgbWrKYlEfeG-1" vertex="1">
          <mxGeometry x="120.5" width="100" height="50" as="geometry"/>
        </mxCell>
        <mxCell id="dIiYX6rC-DH4-wpnL1Wr-50" value="class" style="ellipse;whiteSpace=wrap;html=1;" parent="MGRXwD8dUgbWrKYlEfeG-1" vertex="1">
          <mxGeometry x="10.5" y="34" width="100" height="50" as="geometry"/>
        </mxCell>
        <mxCell id="dIiYX6rC-DH4-wpnL1Wr-52" value="&lt;u&gt;Enrollment_no&lt;/u&gt;" style="ellipse;whiteSpace=wrap;html=1;" parent="MGRXwD8dUgbWrKYlEfeG-1" vertex="1">
          <mxGeometry x="230.5" width="100" height="50" as="geometry"/>
        </mxCell>
        <mxCell id="dIiYX6rC-DH4-wpnL1Wr-54" value="image" style="ellipse;whiteSpace=wrap;html=1;" parent="MGRXwD8dUgbWrKYlEfeG-1" vertex="1">
          <mxGeometry x="333.5" y="34" width="104" height="50" as="geometry"/>
        </mxCell>
        <mxCell id="dIiYX6rC-DH4-wpnL1Wr-55" value="" style="endArrow=none;html=1;entryX=0.5;entryY=1;entryDx=0;entryDy=0;exitX=0.5;exitY=0;exitDx=0;exitDy=0;" parent="MGRXwD8dUgbWrKYlEfeG-1" source="dIiYX6rC-DH4-wpnL1Wr-46" target="dIiYX6rC-DH4-wpnL1Wr-52" edge="1">
          <mxGeometry width="50" height="50" relative="1" as="geometry">
            <mxPoint x="340.5" y="200" as="sourcePoint"/>
            <mxPoint x="390.5" y="150" as="targetPoint"/>
          </mxGeometry>
        </mxCell>
        <mxCell id="dIiYX6rC-DH4-wpnL1Wr-56" value="" style="endArrow=none;html=1;entryX=0.5;entryY=1;entryDx=0;entryDy=0;exitX=0.25;exitY=0;exitDx=0;exitDy=0;" parent="MGRXwD8dUgbWrKYlEfeG-1" source="dIiYX6rC-DH4-wpnL1Wr-46" target="dIiYX6rC-DH4-wpnL1Wr-49" edge="1">
          <mxGeometry width="50" height="50" relative="1" as="geometry">
            <mxPoint x="285.5" y="165" as="sourcePoint"/>
            <mxPoint x="340.5" y="140" as="targetPoint"/>
          </mxGeometry>
        </mxCell>
        <mxCell id="dIiYX6rC-DH4-wpnL1Wr-57" value="" style="endArrow=none;html=1;entryX=1;entryY=1;entryDx=0;entryDy=0;exitX=0;exitY=0.25;exitDx=0;exitDy=0;" parent="MGRXwD8dUgbWrKYlEfeG-1" source="dIiYX6rC-DH4-wpnL1Wr-46" target="dIiYX6rC-DH4-wpnL1Wr-50" edge="1">
          <mxGeometry width="50" height="50" relative="1" as="geometry">
            <mxPoint x="220.5" y="150" as="sourcePoint"/>
            <mxPoint x="220.5" y="135" as="targetPoint"/>
          </mxGeometry>
        </mxCell>
        <mxCell id="dIiYX6rC-DH4-wpnL1Wr-60" value="" style="endArrow=none;html=1;entryX=0.75;entryY=0;entryDx=0;entryDy=0;exitX=0;exitY=1;exitDx=0;exitDy=0;" parent="MGRXwD8dUgbWrKYlEfeG-1" source="dIiYX6rC-DH4-wpnL1Wr-54" target="dIiYX6rC-DH4-wpnL1Wr-46" edge="1">
          <mxGeometry width="50" height="50" relative="1" as="geometry">
            <mxPoint x="320.5" y="270" as="sourcePoint"/>
            <mxPoint x="370.5" y="220" as="targetPoint"/>
          </mxGeometry>
        </mxCell>
        <mxCell id="dIiYX6rC-DH4-wpnL1Wr-61" value="name" style="ellipse;whiteSpace=wrap;html=1;" parent="MGRXwD8dUgbWrKYlEfeG-1" vertex="1">
          <mxGeometry x="413" y="600" width="88" height="50" as="geometry"/>
        </mxCell>
        <mxCell id="dIiYX6rC-DH4-wpnL1Wr-62" value="&lt;u&gt;admin_id&lt;/u&gt;" style="ellipse;whiteSpace=wrap;html=1;" parent="MGRXwD8dUgbWrKYlEfeG-1" vertex="1">
          <mxGeometry x="280.5" y="535" width="88" height="50" as="geometry"/>
        </mxCell>
        <mxCell id="dIiYX6rC-DH4-wpnL1Wr-63" value="" style="endArrow=none;html=1;exitX=1;exitY=0.5;exitDx=0;exitDy=0;entryX=0;entryY=0.75;entryDx=0;entryDy=0;" parent="MGRXwD8dUgbWrKYlEfeG-1" source="dIiYX6rC-DH4-wpnL1Wr-62" target="dIiYX6rC-DH4-wpnL1Wr-47" edge="1">
          <mxGeometry width="50" height="50" relative="1" as="geometry">
            <mxPoint x="305.5" y="465" as="sourcePoint"/>
            <mxPoint x="355.5" y="415" as="targetPoint"/>
          </mxGeometry>
        </mxCell>
        <mxCell id="dIiYX6rC-DH4-wpnL1Wr-64" value="" style="endArrow=none;html=1;exitX=0.5;exitY=0;exitDx=0;exitDy=0;entryX=0.5;entryY=1;entryDx=0;entryDy=0;" parent="MGRXwD8dUgbWrKYlEfeG-1" source="dIiYX6rC-DH4-wpnL1Wr-61" target="dIiYX6rC-DH4-wpnL1Wr-47" edge="1">
          <mxGeometry width="50" height="50" relative="1" as="geometry">
            <mxPoint x="360.5" y="610" as="sourcePoint"/>
            <mxPoint x="410.5" y="560" as="targetPoint"/>
          </mxGeometry>
        </mxCell>
        <mxCell id="dIiYX6rC-DH4-wpnL1Wr-65" value="" style="endArrow=none;html=1;exitX=0.75;exitY=0;exitDx=0;exitDy=0;entryX=0;entryY=1;entryDx=0;entryDy=0;" parent="MGRXwD8dUgbWrKYlEfeG-1" source="dIiYX6rC-DH4-wpnL1Wr-48" target="dIiYX6rC-DH4-wpnL1Wr-67" edge="1">
          <mxGeometry width="50" height="50" relative="1" as="geometry">
            <mxPoint x="720.5" y="440" as="sourcePoint"/>
            <mxPoint x="770.5" y="390" as="targetPoint"/>
          </mxGeometry>
        </mxCell>
        <mxCell id="dIiYX6rC-DH4-wpnL1Wr-66" value="&lt;u&gt;Candidate_id&lt;/u&gt;" style="ellipse;whiteSpace=wrap;html=1;" parent="MGRXwD8dUgbWrKYlEfeG-1" vertex="1">
          <mxGeometry x="783" y="155" width="88" height="50" as="geometry"/>
        </mxCell>
        <mxCell id="dIiYX6rC-DH4-wpnL1Wr-67" value="name" style="ellipse;whiteSpace=wrap;html=1;" parent="MGRXwD8dUgbWrKYlEfeG-1" vertex="1">
          <mxGeometry x="694.5" y="59" width="88" height="50" as="geometry"/>
        </mxCell>
        <mxCell id="dIiYX6rC-DH4-wpnL1Wr-69" value="Votes" style="rhombus;whiteSpace=wrap;html=1;" parent="MGRXwD8dUgbWrKYlEfeG-1" vertex="1">
          <mxGeometry x="433" y="150" width="80" height="80" as="geometry"/>
        </mxCell>
        <mxCell id="dIiYX6rC-DH4-wpnL1Wr-70" value="Manages" style="rhombus;whiteSpace=wrap;html=1;rotation=30;" parent="MGRXwD8dUgbWrKYlEfeG-1" vertex="1">
          <mxGeometry x="550.5" y="310" width="80" height="80" as="geometry"/>
        </mxCell>
        <mxCell id="dIiYX6rC-DH4-wpnL1Wr-71" value="isVerified" style="ellipse;whiteSpace=wrap;html=1;" parent="MGRXwD8dUgbWrKYlEfeG-1" vertex="1">
          <mxGeometry x="20.5" y="216" width="100" height="50" as="geometry"/>
        </mxCell>
        <mxCell id="dIiYX6rC-DH4-wpnL1Wr-72" value="" style="endArrow=none;html=1;entryX=1;entryY=0;entryDx=0;entryDy=0;exitX=-0.005;exitY=1.003;exitDx=0;exitDy=0;exitPerimeter=0;" parent="MGRXwD8dUgbWrKYlEfeG-1" source="dIiYX6rC-DH4-wpnL1Wr-46" target="dIiYX6rC-DH4-wpnL1Wr-71" edge="1">
          <mxGeometry width="50" height="50" relative="1" as="geometry">
            <mxPoint x="220.5" y="230" as="sourcePoint"/>
            <mxPoint x="220.5" y="255" as="targetPoint"/>
          </mxGeometry>
        </mxCell>
        <mxCell id="dIiYX6rC-DH4-wpnL1Wr-74" value="" style="endArrow=none;html=1;entryX=0;entryY=0.5;entryDx=0;entryDy=0;exitX=1;exitY=0.75;exitDx=0;exitDy=0;" parent="MGRXwD8dUgbWrKYlEfeG-1" source="dIiYX6rC-DH4-wpnL1Wr-48" target="dIiYX6rC-DH4-wpnL1Wr-66" edge="1">
          <mxGeometry width="50" height="50" relative="1" as="geometry">
            <mxPoint x="680.5" y="260" as="sourcePoint"/>
            <mxPoint x="748.5000000000075" y="245" as="targetPoint"/>
          </mxGeometry>
        </mxCell>
        <mxCell id="dIiYX6rC-DH4-wpnL1Wr-75" value="" style="endArrow=none;html=1;exitX=1;exitY=0.5;exitDx=0;exitDy=0;entryX=0;entryY=0.5;entryDx=0;entryDy=0;" parent="MGRXwD8dUgbWrKYlEfeG-1" source="dIiYX6rC-DH4-wpnL1Wr-46" target="dIiYX6rC-DH4-wpnL1Wr-69" edge="1">
          <mxGeometry width="50" height="50" relative="1" as="geometry">
            <mxPoint x="310.5" y="290" as="sourcePoint"/>
            <mxPoint x="380.5" y="270" as="targetPoint"/>
          </mxGeometry>
        </mxCell>
        <mxCell id="dIiYX6rC-DH4-wpnL1Wr-76" value="" style="endArrow=none;html=1;exitX=0;exitY=0.5;exitDx=0;exitDy=0;entryX=1;entryY=0.5;entryDx=0;entryDy=0;" parent="MGRXwD8dUgbWrKYlEfeG-1" source="dIiYX6rC-DH4-wpnL1Wr-48" target="dIiYX6rC-DH4-wpnL1Wr-69" edge="1">
          <mxGeometry width="50" height="50" relative="1" as="geometry">
            <mxPoint x="308.7999999999997" y="235.20999999999992" as="sourcePoint"/>
            <mxPoint x="395.5" y="285" as="targetPoint"/>
          </mxGeometry>
        </mxCell>
        <mxCell id="dIiYX6rC-DH4-wpnL1Wr-77" value="" style="endArrow=none;html=1;exitX=0.5;exitY=0;exitDx=0;exitDy=0;entryX=0.5;entryY=1;entryDx=0;entryDy=0;" parent="MGRXwD8dUgbWrKYlEfeG-1" source="dIiYX6rC-DH4-wpnL1Wr-70" target="dIiYX6rC-DH4-wpnL1Wr-48" edge="1">
          <mxGeometry width="50" height="50" relative="1" as="geometry">
            <mxPoint x="610.5" y="380" as="sourcePoint"/>
            <mxPoint x="660.5" y="330" as="targetPoint"/>
          </mxGeometry>
        </mxCell>
        <mxCell id="dIiYX6rC-DH4-wpnL1Wr-78" value="" style="endArrow=none;html=1;exitX=0.5;exitY=1;exitDx=0;exitDy=0;entryX=0.75;entryY=0;entryDx=0;entryDy=0;" parent="MGRXwD8dUgbWrKYlEfeG-1" source="dIiYX6rC-DH4-wpnL1Wr-70" target="dIiYX6rC-DH4-wpnL1Wr-47" edge="1">
          <mxGeometry width="50" height="50" relative="1" as="geometry">
            <mxPoint x="620.5" y="447.5000000000001" as="sourcePoint"/>
            <mxPoint x="654.5" y="320" as="targetPoint"/>
          </mxGeometry>
        </mxCell>
        <mxCell id="dIiYX6rC-DH4-wpnL1Wr-79" value="Manages" style="rhombus;whiteSpace=wrap;html=1;rotation=-30;" parent="MGRXwD8dUgbWrKYlEfeG-1" vertex="1">
          <mxGeometry x="293.5" y="310" width="80" height="80" as="geometry"/>
        </mxCell>
        <mxCell id="dIiYX6rC-DH4-wpnL1Wr-80" value="" style="endArrow=none;html=1;entryX=0.5;entryY=1;entryDx=0;entryDy=0;exitX=0.5;exitY=0;exitDx=0;exitDy=0;" parent="MGRXwD8dUgbWrKYlEfeG-1" source="dIiYX6rC-DH4-wpnL1Wr-79" target="dIiYX6rC-DH4-wpnL1Wr-46" edge="1">
          <mxGeometry width="50" height="50" relative="1" as="geometry">
            <mxPoint x="310.5" y="310" as="sourcePoint"/>
            <mxPoint x="305.5" y="250" as="targetPoint"/>
          </mxGeometry>
        </mxCell>
        <mxCell id="dIiYX6rC-DH4-wpnL1Wr-81" value="" style="endArrow=none;html=1;entryX=0.5;entryY=1;entryDx=0;entryDy=0;" parent="MGRXwD8dUgbWrKYlEfeG-1" target="dIiYX6rC-DH4-wpnL1Wr-79" edge="1">
          <mxGeometry width="50" height="50" relative="1" as="geometry">
            <mxPoint x="433.5" y="490" as="sourcePoint"/>
            <mxPoint x="373.5" y="405" as="targetPoint"/>
          </mxGeometry>
        </mxCell>
        <mxCell id="dIiYX6rC-DH4-wpnL1Wr-82" value="password" style="ellipse;whiteSpace=wrap;html=1;" parent="MGRXwD8dUgbWrKYlEfeG-1" vertex="1">
          <mxGeometry x="529.5" y="575" width="88" height="50" as="geometry"/>
        </mxCell>
        <mxCell id="dIiYX6rC-DH4-wpnL1Wr-83" value="" style="endArrow=none;html=1;exitX=0.5;exitY=0;exitDx=0;exitDy=0;entryX=1;entryY=0.75;entryDx=0;entryDy=0;" parent="MGRXwD8dUgbWrKYlEfeG-1" source="dIiYX6rC-DH4-wpnL1Wr-82" target="dIiYX6rC-DH4-wpnL1Wr-47" edge="1">
          <mxGeometry width="50" height="50" relative="1" as="geometry">
            <mxPoint x="355.65420958873847" y="607.3459478997142" as="sourcePoint"/>
            <mxPoint x="448" y="570" as="targetPoint"/>
          </mxGeometry>
        </mxCell>
        <mxCell id="dIiYX6rC-DH4-wpnL1Wr-84" value="1" style="text;html=1;resizable=0;points=[];autosize=1;align=left;verticalAlign=top;spacingTop=-4;" parent="MGRXwD8dUgbWrKYlEfeG-1" vertex="1">
          <mxGeometry x="427.5" y="461" width="20" height="20" as="geometry"/>
        </mxCell>
        <mxCell id="dIiYX6rC-DH4-wpnL1Wr-85" value="M" style="text;html=1;resizable=0;points=[];autosize=1;align=left;verticalAlign=top;spacingTop=-4;" parent="MGRXwD8dUgbWrKYlEfeG-1" vertex="1">
          <mxGeometry x="265.5" y="235" width="30" height="20" as="geometry"/>
        </mxCell>
        <mxCell id="dIiYX6rC-DH4-wpnL1Wr-86" value="1" style="text;html=1;resizable=0;points=[];autosize=1;align=left;verticalAlign=top;spacingTop=-4;" parent="MGRXwD8dUgbWrKYlEfeG-1" vertex="1">
          <mxGeometry x="509.5" y="465" width="20" height="20" as="geometry"/>
        </mxCell>
        <mxCell id="dIiYX6rC-DH4-wpnL1Wr-87" value="M" style="text;html=1;resizable=0;points=[];autosize=1;align=left;verticalAlign=top;spacingTop=-4;" parent="MGRXwD8dUgbWrKYlEfeG-1" vertex="1">
          <mxGeometry x="670.5" y="241" width="30" height="20" as="geometry"/>
        </mxCell>
        <mxCell id="dIiYX6rC-DH4-wpnL1Wr-88" value="" style="endArrow=none;html=1;exitX=0.374;exitY=-0.019;exitDx=0;exitDy=0;exitPerimeter=0;" parent="MGRXwD8dUgbWrKYlEfeG-1" source="dIiYX6rC-DH4-wpnL1Wr-48" edge="1">
          <mxGeometry width="50" height="50" relative="1" as="geometry">
            <mxPoint x="660.5" y="140" as="sourcePoint"/>
            <mxPoint x="620.5" y="70" as="targetPoint"/>
          </mxGeometry>
        </mxCell>
        <mxCell id="dIiYX6rC-DH4-wpnL1Wr-89" value="class" style="ellipse;whiteSpace=wrap;html=1;" parent="MGRXwD8dUgbWrKYlEfeG-1" vertex="1">
          <mxGeometry x="590.5" y="34.5" width="88" height="50" as="geometry"/>
        </mxCell>
        <mxCell id="dIiYX6rC-DH4-wpnL1Wr-90" value="1" style="text;html=1;resizable=0;points=[];autosize=1;align=left;verticalAlign=top;spacingTop=-4;" parent="MGRXwD8dUgbWrKYlEfeG-1" vertex="1">
          <mxGeometry x="304.5" y="170" width="20" height="20" as="geometry"/>
        </mxCell>
        <mxCell id="dIiYX6rC-DH4-wpnL1Wr-91" value="1" style="text;html=1;resizable=0;points=[];autosize=1;align=left;verticalAlign=top;spacingTop=-4;" parent="MGRXwD8dUgbWrKYlEfeG-1" vertex="1">
          <mxGeometry x="590.5" y="174" width="20" height="20" as="geometry"/>
        </mxCell>
        <mxCell id="48o6MAuPuIJwwfAhe123-0" value="hasVoted" style="ellipse;whiteSpace=wrap;html=1;" vertex="1" parent="MGRXwD8dUgbWrKYlEfeG-1">
          <mxGeometry x="11" y="130" width="99" height="50" as="geometry"/>
        </mxCell>
        <mxCell id="48o6MAuPuIJwwfAhe123-1" value="" style="endArrow=none;html=1;entryX=1;entryY=0.5;entryDx=0;entryDy=0;exitX=0;exitY=0.5;exitDx=0;exitDy=0;" edge="1" parent="MGRXwD8dUgbWrKYlEfeG-1" source="dIiYX6rC-DH4-wpnL1Wr-46" target="48o6MAuPuIJwwfAhe123-0">
          <mxGeometry width="50" height="50" relative="1" as="geometry">
            <mxPoint x="210.5" y="182.5" as="sourcePoint"/>
            <mxPoint x="105.85533905932743" y="86.67766952966372" as="targetPoint"/>
          </mxGeometry>
        </mxCell>
      </root>
    </mxGraphModel>
  </diagram>
</mxfile>
